<svg xmlns="http://www.w3.org/2000/svg" width="108" height="108" viewBox="0 0 108 108">
  <g id="Group_3503" data-name="Group 3503" transform="translate(-906 -3852)">
    <circle id="Ellipse_2" data-name="Ellipse 2" cx="54" cy="54" r="54" transform="translate(906 3852)" fill="#feeff2"/>
    <path id="smartthings" d="M28.291,0c-7.8,0-15.918,1.321-21.669,6.622C1.229,12.717,0,20.8,0,28.329v2.315c0,7.78,1.321,15.973,6.622,21.728,6.13,5.422,14.256,6.618,21.815,6.618h2.1c7.816,0,16.045-1.3,21.833-6.622C57.8,46.236,58.991,38.1,58.991,30.534v-2.1c0-7.816-1.3-16.045-6.622-21.817C46.273,1.214,38.206,0,30.68,0Zm1.2,8.616a5.491,5.491,0,0,1,5.545,5.422A5.323,5.323,0,0,1,30.824,19.4v3.908a7.164,7.164,0,0,1,6.214,7.212,7.545,7.545,0,0,1-15.087,0,7.155,7.155,0,0,1,.111-1.222l-3.775-1.2a5.6,5.6,0,0,1-6.538,2.483,5.406,5.406,0,0,1-3.562-6.833A5.521,5.521,0,0,1,13.461,20a5.665,5.665,0,0,1,1.716.265,5.481,5.481,0,0,1,3.228,2.7,5.282,5.282,0,0,1,.57,3.071l3.772,1.2a7.849,7.849,0,0,1,5.86-3.929V19.4a5.721,5.721,0,0,1-4.66-5.362A5.49,5.49,0,0,1,29.5,8.614Zm0,2.168a3.255,3.255,0,1,0,3.328,3.254A3.294,3.294,0,0,0,29.5,10.784ZM45.526,20A5.524,5.524,0,0,1,50.8,23.749a5.285,5.285,0,0,1-.333,4.138,5.457,5.457,0,0,1-3.23,2.694,5.62,5.62,0,0,1-1.716.27A5.55,5.55,0,0,1,40.7,28.1l-1.558.493-.683-2.06,1.553-.5a5.432,5.432,0,0,1,3.8-5.77A5.629,5.629,0,0,1,45.525,20ZM13.46,22.171a3.312,3.312,0,0,0-3.163,2.25,3.244,3.244,0,0,0,2.137,4.1,3.391,3.391,0,0,0,1.029.161,3.312,3.312,0,0,0,3.163-2.25,3.171,3.171,0,0,0-.2-2.483,3.289,3.289,0,0,0-1.937-1.617,3.385,3.385,0,0,0-1.032-.161Zm32.063,0a3.341,3.341,0,0,0-1.029.161,3.244,3.244,0,0,0-2.137,4.1,3.315,3.315,0,0,0,3.163,2.25,3.441,3.441,0,0,0,1.032-.161A3.29,3.29,0,0,0,48.487,26.9a3.167,3.167,0,0,0,.2-2.479,3.313,3.313,0,0,0-3.166-2.25ZM29.5,25.745a4.774,4.774,0,1,0,4.88,4.777A4.833,4.833,0,0,0,29.5,25.745ZM22.844,37.62l1.794,1.275-.959,1.293a5.341,5.341,0,0,1,.393,6.851,5.626,5.626,0,0,1-7.746,1.2A5.352,5.352,0,0,1,15.1,40.663a5.6,5.6,0,0,1,6.784-1.745Zm13.3,0,.964,1.3a5.617,5.617,0,0,1,6.784,1.745,5.353,5.353,0,0,1-1.226,7.575,5.632,5.632,0,0,1-7.746-1.2,5.339,5.339,0,0,1,.393-6.846l-.959-1.295ZM19.59,40.594a3.367,3.367,0,0,0-2.7,1.345,3.207,3.207,0,0,0,.737,4.544,3.367,3.367,0,0,0,4.649-.721,3.209,3.209,0,0,0-.737-4.547,3.353,3.353,0,0,0-1.952-.619Zm19.808,0a3.36,3.36,0,0,0-1.955.624,3.212,3.212,0,0,0-.736,4.544,3.369,3.369,0,0,0,4.649.721,3.212,3.212,0,0,0,.737-4.547,3.367,3.367,0,0,0-2.7-1.34Z" transform="translate(930 3876.505)" fill="#ff98c9"/>
  </g>
</svg>
