<svg xmlns="http://www.w3.org/2000/svg" width="108" height="108" viewBox="0 0 108 108">
  <g id="Group_3502" data-name="Group 3502" transform="translate(-1375 -3428)">
    <circle id="Ellipse_2" data-name="Ellipse 2" cx="54" cy="54" r="54" transform="translate(1375 3428)" fill="#feeff2"/>
    <path id="add-playlist" d="M8.756,30.641V13.129H4.374A4.385,4.385,0,0,0,0,17.511V43.778a4.384,4.384,0,0,0,4.374,4.374H30.641a4.378,4.378,0,0,0,4.374-4.374V39.406h-17.5A8.772,8.772,0,0,1,8.756,30.641ZM43.778,0H17.511a4.378,4.378,0,0,0-4.374,4.374V30.641a4.378,4.378,0,0,0,4.374,4.374H43.778a4.378,4.378,0,0,0,4.374-4.374V4.374A4.384,4.384,0,0,0,43.778,0ZM41.587,19.7H32.832v8.756H28.458V19.7H19.7V15.33h8.756V6.565h4.374V15.32h8.756V19.7Z" transform="translate(1404.924 3457.924)" fill="#ff98c9"/>
  </g>
</svg>
