<svg xmlns="http://www.w3.org/2000/svg" width="108" height="108" viewBox="0 0 108 108">
  <g id="Group_71" data-name="Group 71" transform="translate(-1375 -3873)">
    <g id="Group_55" data-name="Group 55" transform="translate(499 445)">
      <circle id="Ellipse_2" data-name="Ellipse 2" cx="54" cy="54" r="54" transform="translate(876 3428)" fill="#feeff2"/>
    </g>
    <path id="gift" d="M56.188,25.375H32.625v-7.25H56.188a1.792,1.792,0,0,1,1.274.509,1.715,1.715,0,0,1,.538,1.3v3.625a1.838,1.838,0,0,1-1.812,1.813ZM36.25,14.5H18.125A6.989,6.989,0,0,1,13,12.377,6.977,6.977,0,0,1,10.875,7.25,6.994,6.994,0,0,1,13,2.123,6.982,6.982,0,0,1,18.125,0a10.444,10.444,0,0,1,4.559.765,3.474,3.474,0,0,1,1.9,2.265A18.529,18.529,0,0,1,25.12,6.2,14.757,14.757,0,0,0,26.168,10.2,12.917,12.917,0,0,0,29,14.5V12.037l.056-2.294.2-2.265.369-2.011L30.218,3.6l.907-1.444L32.4.963l1.7-.68L36.25,0a6.989,6.989,0,0,1,5.127,2.123A6.977,6.977,0,0,1,43.5,7.25a6.994,6.994,0,0,1-2.123,5.127A6.982,6.982,0,0,1,36.25,14.5ZM18.1,3.625a3.576,3.576,0,0,0-3.6,3.6A3.566,3.566,0,0,0,15.547,9.8,3.422,3.422,0,0,0,18.1,10.875,3.517,3.517,0,0,0,20.674,9.8,3.517,3.517,0,0,0,21.75,7.221a3.422,3.422,0,0,0-1.076-2.549A3.566,3.566,0,0,0,18.1,3.625Zm18.125,0a3.576,3.576,0,0,0-3.6,3.6A3.517,3.517,0,0,0,33.7,9.8a3.556,3.556,0,0,0,5.1,0,3.517,3.517,0,0,0,1.076-2.578A3.422,3.422,0,0,0,38.8,4.672,3.566,3.566,0,0,0,36.221,3.625ZM25.375,25.375H1.813a1.742,1.742,0,0,1-1.274-.538A1.742,1.742,0,0,1,0,23.563V19.938a1.718,1.718,0,0,1,.538-1.3,1.783,1.783,0,0,1,1.274-.509H25.375Zm0,32.625H7.25a3.459,3.459,0,0,1-2.578-1.076,3.523,3.523,0,0,1-1.047-2.549V29h21.75Zm29-29V54.375a3.532,3.532,0,0,1-1.047,2.549A3.456,3.456,0,0,1,50.75,58H32.625V29Z" transform="translate(1400 3896)" fill="#ff98c9"/>
  </g>
</svg>
