<svg xmlns="http://www.w3.org/2000/svg" xmlns:xlink="http://www.w3.org/1999/xlink" viewBox="0 0 609.02 273.29"><defs><style>.cls-1,.cls-13{fill:url(#linear-gradient);}.cls-1,.cls-10,.cls-11,.cls-12,.cls-2,.cls-3,.cls-5,.cls-6,.cls-7,.cls-8,.cls-9{clip-rule:evenodd;}.cls-16,.cls-2{fill:url(#linear-gradient-2);}.cls-3,.cls-4{fill:none;}.cls-25,.cls-41,.cls-5{fill:#fff;}.cls-48,.cls-50,.cls-6{fill:#f0ecec;}.cls-19,.cls-21,.cls-7{fill:url(#linear-gradient-3);}.cls-22,.cls-24,.cls-29,.cls-8{fill:#ccc;}.cls-26,.cls-9{fill:url(#linear-gradient-4);}.cls-10,.cls-30{fill:url(#linear-gradient-5);}.cls-11,.cls-33{fill:url(#linear-gradient-6);}.cls-12,.cls-38{fill:url(#linear-gradient-7);}.cls-13,.cls-16,.cls-19,.cls-22,.cls-25,.cls-26,.cls-29,.cls-30,.cls-33,.cls-36,.cls-38,.cls-48,.cls-51{fill-rule:evenodd;}.cls-14{clip-path:url(#clip-path);}.cls-15{fill:url(#linear-gradient-9);}.cls-17{clip-path:url(#clip-path-2);}.cls-18{fill:url(#linear-gradient-11);}.cls-20{clip-path:url(#clip-path-3);}.cls-23{clip-path:url(#clip-path-4);}.cls-27{clip-path:url(#clip-path-5);}.cls-28{fill:url(#linear-gradient-15);}.cls-29{opacity:0.72;}.cls-31{clip-path:url(#clip-path-6);}.cls-32{fill:url(#linear-gradient-17);}.cls-34{clip-path:url(#clip-path-7);}.cls-35{fill:url(#linear-gradient-19);}.cls-36{fill:url(#linear-gradient-20);}.cls-37{clip-path:url(#clip-path-8);}.cls-39{clip-path:url(#clip-path-9);}.cls-40{fill:url(#linear-gradient-22);}.cls-42{clip-path:url(#clip-path-10);}.cls-43{clip-path:url(#clip-path-11);}.cls-44{clip-path:url(#clip-path-12);}.cls-45{clip-path:url(#clip-path-13);}.cls-46{fill:#e0dfd9;}.cls-47{clip-path:url(#clip-path-14);}.cls-49{clip-path:url(#clip-path-15);}.cls-51{fill:#ce3175;opacity:0.5;}</style><linearGradient id="linear-gradient" x1="107.31" y1="371.41" x2="183.46" y2="371.41" gradientUnits="userSpaceOnUse"><stop offset="0" stop-color="#ebebeb"/><stop offset="1" stop-color="#aeacac"/></linearGradient><linearGradient id="linear-gradient-2" x1="107.91" y1="329.09" x2="183.92" y2="329.09" gradientUnits="userSpaceOnUse"><stop offset="0" stop-color="#ccc"/><stop offset="1" stop-color="#fff"/><stop offset="1" stop-color="#ccc"/></linearGradient><linearGradient id="linear-gradient-3" x1="143.49" y1="393.49" x2="183.26" y2="393.49" gradientUnits="userSpaceOnUse"><stop offset="0" stop-color="#ebebeb"/><stop offset="1" stop-color="#ccc"/></linearGradient><linearGradient id="linear-gradient-4" x1="107.31" y1="361.83" x2="143.49" y2="361.83" gradientUnits="userSpaceOnUse"><stop offset="0" stop-color="#fff"/><stop offset="1" stop-color="#ccc"/></linearGradient><linearGradient id="linear-gradient-5" x1="183.26" y1="371.41" x2="259.41" y2="371.41" xlink:href="#linear-gradient"/><linearGradient id="linear-gradient-6" x1="182.6" y1="329.09" x2="258.61" y2="329.09" xlink:href="#linear-gradient-2"/><linearGradient id="linear-gradient-7" x1="223.03" y1="361.83" x2="259.21" y2="361.83" xlink:href="#linear-gradient-4"/><clipPath id="clip-path" transform="translate(-107.31 -193.21)"><polygon class="cls-1" points="108.57 292.03 183.26 450.52 183.26 450.79 107.31 392.73 108.57 292.03"/></clipPath><linearGradient id="linear-gradient-9" x1="-680.32" y1="608.68" x2="-679.32" y2="608.68" gradientTransform="translate(51807.45 -96548.44) scale(76.15 158.91)" xlink:href="#linear-gradient"/><clipPath id="clip-path-2" transform="translate(-107.31 -193.21)"><polygon class="cls-2" points="183.26 336.47 143.49 366.14 108.57 292.03 183.26 335.51 183.26 336.47"/></clipPath><linearGradient id="linear-gradient-11" x1="1.26" y1="135.88" x2="75.95" y2="135.88" xlink:href="#linear-gradient-2"/><clipPath id="clip-path-3" transform="translate(-107.31 -193.21)"><polygon class="cls-7" points="183.26 450.52 143.49 366.14 183.26 336.47 183.26 450.52"/></clipPath><clipPath id="clip-path-4" transform="translate(-107.31 -193.21)"><polygon class="cls-8" points="108.57 292.03 117.85 339.71 107.81 352.14 108.57 292.03"/></clipPath><clipPath id="clip-path-5" transform="translate(-107.31 -193.21)"><polygon class="cls-9" points="143.49 366.14 107.31 392.73 107.81 352.14 117.85 339.71 126.9 330.94 143.49 366.14"/></clipPath><linearGradient id="linear-gradient-15" x1="-699.21" y1="598.06" x2="-698.21" y2="598.06" gradientTransform="translate(-25264.95 37122.71) rotate(180) scale(36.19 61.79)" xlink:href="#linear-gradient-4"/><clipPath id="clip-path-6" transform="translate(-107.31 -193.21)"><polygon class="cls-10" points="257.95 292.03 183.26 450.52 183.26 450.79 259.21 392.73 257.95 292.03"/></clipPath><linearGradient id="linear-gradient-17" x1="-692.49" y1="602.73" x2="-691.49" y2="602.73" gradientTransform="translate(-52582.22 95959.7) rotate(180) scale(76.15 158.91)" xlink:href="#linear-gradient"/><clipPath id="clip-path-7" transform="translate(-107.31 -193.21)"><polygon class="cls-11" points="183.26 336.47 223.03 366.14 257.95 292.03 183.26 335.51 183.26 336.47"/></clipPath><linearGradient id="linear-gradient-19" x1="75.95" y1="135.88" x2="150.64" y2="135.88" xlink:href="#linear-gradient-2"/><linearGradient id="linear-gradient-20" x1="75.95" y1="200.28" x2="115.72" y2="200.28" gradientUnits="userSpaceOnUse"><stop offset="0" stop-color="#ebebeb"/><stop offset="1" stop-color="#ebebeb"/></linearGradient><clipPath id="clip-path-8" transform="translate(-107.31 -193.21)"><polygon class="cls-8" points="257.95 292.03 248.67 339.71 258.7 352.14 257.95 292.03"/></clipPath><clipPath id="clip-path-9" transform="translate(-107.31 -193.21)"><polygon class="cls-12" points="223.03 366.14 259.21 392.73 258.7 352.14 248.67 339.71 239.62 330.94 223.03 366.14"/></clipPath><linearGradient id="linear-gradient-22" x1="-673.6" y1="613.36" x2="-672.6" y2="613.36" gradientTransform="translate(24490.18 -37730.76) scale(36.19 61.79)" xlink:href="#linear-gradient-4"/><clipPath id="clip-path-10" transform="translate(-107.31 -193.21)"><path class="cls-4" d="M576.37,390.16H548.19q.78-26.58,13.31-54.67Q572.59,309.26,595,282.3H528.82V259.57h86.64q10.26,0,11.76,7.41a14.11,14.11,0,0,1-3,12.7,248.59,248.59,0,0,0-19.57,25.26,151,151,0,0,0-14.21,26.37,165.17,165.17,0,0,0-14.06,58.85"/></clipPath><clipPath id="clip-path-11" transform="translate(-107.31 -193.21)"><polygon class="cls-3" points="512.62 193.21 641.2 466.03 641.2 466.5 510.46 366.55 512.62 193.21"/></clipPath><clipPath id="clip-path-12" transform="translate(-107.31 -193.21)"><polygon class="cls-4" points="641.2 269.71 572.75 320.78 512.62 193.21 641.2 268.05 641.2 269.71"/></clipPath><clipPath id="clip-path-13" transform="translate(-107.31 -193.21)"><polygon class="cls-5" points="641.2 269.71 572.75 320.78 512.62 193.21 641.2 268.05 641.2 269.71"/></clipPath><clipPath id="clip-path-14" transform="translate(-107.31 -193.21)"><polygon class="cls-3" points="641.2 466.03 572.75 320.78 641.2 269.71 641.2 466.03"/></clipPath><clipPath id="clip-path-15" transform="translate(-107.31 -193.21)"><polygon class="cls-6" points="572.75 320.78 510.46 366.55 511.33 296.68 528.6 275.28 544.19 260.18 572.75 320.78"/></clipPath></defs><g id="Layer_1" data-name="Layer 1"><polygon class="cls-13" points="1.26 98.82 75.95 257.31 75.95 257.58 0 199.52 1.26 98.82"/><g class="cls-14"><rect class="cls-15" y="98.82" width="75.95" height="158.76"/></g><polygon class="cls-16" points="75.95 143.26 36.19 172.93 1.26 98.82 75.95 142.3 75.95 143.26"/><g class="cls-17"><rect class="cls-18" x="1.26" y="98.82" width="74.69" height="74.11"/></g><polygon class="cls-19" points="75.95 257.31 36.19 172.93 75.95 143.26 75.95 257.31"/><g class="cls-20"><rect class="cls-21" x="36.19" y="143.26" width="39.77" height="114.05"/></g><polygon class="cls-22" points="1.26 98.82 10.54 146.5 0.51 158.93 1.26 98.82"/><g class="cls-23"><rect class="cls-24" x="0.51" y="98.82" width="10.03" height="60.11"/></g><polygon class="cls-25" points="19.59 137.73 10.54 146.5 1.26 98.82 19.59 137.73"/><polygon class="cls-26" points="36.19 172.93 0 199.52 0.51 158.93 10.54 146.5 19.59 137.73 36.19 172.93"/><g class="cls-27"><rect class="cls-28" y="137.73" width="36.19" height="61.79"/></g><polygon class="cls-25" points="55.95 214.86 27.91 179.01 36.19 172.93 55.95 214.86"/><polygon class="cls-29" points="59.74 245.19 75.95 245.19 75.95 257.58 59.74 245.19"/><polygon class="cls-30" points="150.64 98.82 75.95 257.31 75.95 257.58 151.9 199.52 150.64 98.82"/><g class="cls-31"><rect class="cls-32" x="75.95" y="98.82" width="75.95" height="158.76"/></g><polygon class="cls-33" points="75.95 143.26 115.72 172.93 150.64 98.82 75.95 142.3 75.95 143.26"/><g class="cls-34"><rect class="cls-35" x="75.95" y="98.82" width="74.69" height="74.11"/></g><polygon class="cls-36" points="75.95 257.31 115.72 172.93 75.95 143.26 75.95 257.31"/><polygon class="cls-22" points="150.64 98.82 141.36 146.5 151.4 158.93 150.64 98.82"/><g class="cls-37"><rect class="cls-24" x="141.36" y="98.82" width="10.03" height="60.11"/></g><polygon class="cls-25" points="132.31 137.73 141.36 146.5 150.64 98.82 132.31 137.73"/><polygon class="cls-38" points="115.72 172.93 151.9 199.52 151.4 158.93 141.36 146.5 132.31 137.73 115.72 172.93"/><g class="cls-39"><rect class="cls-40" x="115.72" y="137.73" width="36.19" height="61.79"/></g><polygon class="cls-25" points="95.96 214.86 124 179.01 115.72 172.93 95.96 214.86"/><polygon class="cls-29" points="92.17 245.19 75.95 245.19 75.95 257.58 92.17 245.19"/><rect class="cls-41" x="261.28" y="117.48" width="20.95" height="79.31"/><path class="cls-41" d="M344.62,350.78c0-7.79-1.48-13.76-4.46-18s-7.27-6.27-12.82-6.27a14.42,14.42,0,0,0-12.49,6.27q-4.17,5.69-4.18,18,0,11.36,4.46,17.05,4.47,6.27,12.82,6.27a14.23,14.23,0,0,0,12.21-6.27q4.47-6.3,4.46-17.05m-33.95,58.47a9.72,9.72,0,0,1-3,7.13,9.86,9.86,0,0,1-7.19,3H290.33V345.08c0-13.95,4-22.65,12.23-28.5,7.83-5.57,17-7.62,26.59-7.62a42.89,42.89,0,0,1,15.06,2.83,29.45,29.45,0,0,1,12.1,8.23c6.55,7.26,8.95,17.72,8.95,29.85q0,18.84-8.95,30.48-8.94,11.36-23,11.34A30.23,30.23,0,0,1,320.23,389a22.28,22.28,0,0,1-9.56-9.25Z" transform="translate(-107.31 -193.21)"/><path class="cls-41" d="M462.89,390.16H452.42A9.75,9.75,0,0,1,442.25,380V339.37q0-7.15-4.31-10.45a15.61,15.61,0,0,0-9.68-3.29,14.94,14.94,0,0,0-9.51,3.29c-2.77,2.19-4.18,5.68-4.18,10.45v50.79H393.62V343.6q0-20.31,10.61-27.17A46.29,46.29,0,0,1,427.67,309a45.16,45.16,0,0,1,24.19,6.86q11,6.89,11,27.78Z" transform="translate(-107.31 -193.21)"/><path class="cls-41" d="M488.79,310.7h0V340l25.39-29.28h25.07l-28.36,30.48,28.67,49H514.48l-14.63-26.89c-3-5.38-5.58-7.64-7.77-6.85s-3.29,2-3.29,3.56v30.18h-21V287.4h10.78a9.91,9.91,0,0,1,7.19,3,9.44,9.44,0,0,1,3,6.88Z" transform="translate(-107.31 -193.21)"/><g class="cls-42"><g class="cls-43"><rect class="cls-41" x="403.15" width="130.74" height="273.29"/></g><g class="cls-44"><rect class="cls-41" x="405.32" width="128.58" height="127.57"/></g><polygon class="cls-25" points="533.89 76.5 465.44 127.57 405.31 0 533.89 74.84 533.89 76.5"/><g class="cls-45"><rect class="cls-46" x="405.32" width="128.58" height="127.57"/></g><g class="cls-47"><rect class="cls-41" x="465.44" y="76.5" width="68.45" height="196.32"/></g><polygon class="cls-25" points="436.88 66.97 421.29 82.07 405.31 0 436.88 66.97"/><polygon class="cls-48" points="465.44 127.57 403.15 173.34 404.02 103.47 421.29 82.07 436.88 66.97 465.44 127.57"/><g class="cls-49"><rect class="cls-50" x="403.15" y="66.97" width="62.29" height="106.37"/></g><polygon class="cls-48" points="499.45 199.75 451.19 138.04 465.44 127.57 499.45 199.75"/><polygon class="cls-51" points="505.98 251.95 533.89 251.95 533.89 273.29 505.98 251.95"/></g><path class="cls-41" d="M716.33,390.16H705.85A9.73,9.73,0,0,1,695.69,380V339.37q0-7.15-4.31-10.45a15.64,15.64,0,0,0-9.69-3.29,14.93,14.93,0,0,0-9.5,3.29Q668,332.21,668,339.37v50.79h-21V343.6q0-20.31,10.6-27.17A46.29,46.29,0,0,1,681.11,309a45.1,45.1,0,0,1,24.18,6.86q11.06,6.89,11,27.78Z" transform="translate(-107.31 -193.21)"/><rect class="cls-41" x="513.9" y="117.48" width="20.95" height="79.31"/><circle class="cls-41" cx="271.75" cy="103.41" r="10.69"/><circle class="cls-41" cx="524.37" cy="103.41" r="10.69"/><circle class="cls-41" cx="499.26" cy="186.09" r="10.69"/><polygon class="cls-41" points="202.74 157.71 183.02 157.71 183.02 118.6 202.74 123.61 202.74 157.71"/><path class="cls-41" d="M311.28,319.29v-2.2a9.43,9.43,0,0,0-3-6.88,9.89,9.89,0,0,0-7.19-3H290.33v12.07Z" transform="translate(-107.31 -193.21)"/></g></svg>